<svg width="21" height="13" viewBox="0 0 21 13" fill="none" xmlns="http://www.w3.org/2000/svg">
<path opacity="0.5" d="M18.5779 0.33879C18.2614 0.0259455 17.7521 0.0259455 17.4356 0.33879L15.6088 2.14435C15.3745 2.37597 15.3032 2.72618 15.4284 3.03095C15.5536 3.33573 15.8505 3.53472 16.18 3.53472H17.154C16.741 7.68337 13.1989 10.9375 8.87299 10.9375C5.85862 10.9375 3.22136 9.35616 1.76113 6.98996C1.52547 6.60809 1.02486 6.48957 0.642992 6.72523C0.261123 6.96089 0.142598 7.4615 0.378258 7.84337C2.12525 10.6742 5.27774 12.5625 8.87299 12.5625C14.0815 12.5625 18.3681 8.59667 18.7859 3.53472H19.8335C20.163 3.53472 20.4599 3.33573 20.5851 3.03095C20.7103 2.72618 20.639 2.37597 20.4047 2.14435L18.5779 0.33879Z" fill="white"/>
</svg>
